<svg width="35" height="35" viewBox="0 0 35 35" fill="none" xmlns="http://www.w3.org/2000/svg">
<path fill-rule="evenodd" clip-rule="evenodd" d="M20.8348 0.0315072C20.755 0.0542606 18.8964 1.56741 16.7044 3.39417C12.5697 6.83995 12.4972 6.91056 12.4972 7.48635C12.4972 8.06223 12.5696 8.1326 16.7079 11.5814C19.8096 14.1663 20.7586 14.9172 20.975 14.9579C21.3739 15.0327 21.7584 14.9399 22.0435 14.7C22.453 14.3553 22.5042 14.1274 22.5042 12.6494C22.5042 11.4833 22.5197 11.3177 22.6288 11.3177C22.9511 11.3177 24.3681 11.6586 25.0891 11.9096C26.6983 12.4698 28.0773 13.3166 29.314 14.5036C30.3016 15.4516 30.8965 16.2607 31.8873 18.003C32.3275 18.7771 32.8035 19.5226 32.945 19.6598C33.5637 20.2594 34.6693 19.9809 34.9412 19.1569C35.0616 18.7921 34.9842 16.1588 34.8268 15.2663C34.1458 11.4046 31.9619 8.06309 28.7587 5.98189C27.016 4.84961 24.9058 4.07154 22.9583 3.84314L22.5133 3.79091L22.4892 2.28191C22.463 0.63592 22.4449 0.567191 21.9385 0.188983C21.7346 0.0368241 21.1222 -0.0505929 20.8348 0.0315072ZM20.0144 4.70504C20.0363 5.29991 20.0727 5.48397 20.2028 5.65802C20.5449 6.11599 20.7105 6.17948 21.7396 6.24766C23.3751 6.35603 24.7171 6.69108 26.0869 7.3331C28.2125 8.32933 30.2449 10.3093 31.2958 12.4076C31.7298 13.2744 31.7206 13.3452 31.2367 12.8612C29.2112 10.8353 26.4873 9.44159 23.5565 8.93147C23.1283 8.85688 22.3324 8.79151 21.7879 8.78619C20.9014 8.77752 20.7752 8.79339 20.5809 8.93773C20.1285 9.27387 20.0437 9.4731 20.0144 10.2677C19.9996 10.6732 19.9725 11.0049 19.9543 11.0049C19.8531 11.0049 15.7788 7.53139 15.8011 7.46423C15.8301 7.37736 19.8515 3.9824 19.9363 3.97325C19.9644 3.97028 19.9996 4.29954 20.0144 4.70504ZM5.65639 5.09544C5.52739 5.15322 4.43647 6.19863 3.23202 7.41856C0.857607 9.82355 0.620564 10.1308 0.253195 11.2786C-0.16546 12.5865 -0.078993 13.7076 0.617906 16.008C1.6018 19.2557 3.15189 22.2266 5.35086 25.0792C6.24501 26.2391 8.75702 28.7515 9.91722 29.6463C12.8989 31.9459 16.0594 33.5563 19.4943 34.5265C21.4787 35.087 22.4715 35.1378 23.716 34.7428C24.8776 34.3741 25.1615 34.1531 27.6393 31.6883C29.6193 29.7187 29.9277 29.38 29.9738 29.1256C30.058 28.661 29.9511 28.2988 29.633 27.9715C29.215 27.5412 23.1481 23.1933 22.777 23.058C22.2382 22.8615 22.0245 22.959 20.4243 24.1312L18.947 25.2133L18.3292 24.9048C15.007 23.2461 11.7924 20.0562 10.1525 16.791L9.77938 16.0482L10.825 14.6126C11.9898 13.0134 12.1242 12.7259 11.9398 12.2265C11.8351 11.9427 7.51614 5.86632 7.07693 5.38467C6.73325 5.00779 6.12735 4.88448 5.65639 5.09544Z" fill="white"/>
</svg>
