<svg width="28" height="28" viewBox="0 0 28 28" fill="none" xmlns="http://www.w3.org/2000/svg">
<path d="M14 2.80002C16.9705 2.80002 19.8192 3.98002 21.9196 6.08042C24.0201 8.18083 25.2 11.0296 25.2 14C25.2 16.9704 24.0201 19.8192 21.9196 21.9196C19.8192 24.02 16.9705 25.2 14 25.2C11.0296 25.2 8.18086 24.02 6.08045 21.9196C3.98005 19.8192 2.80005 16.9704 2.80005 14C2.80005 11.0296 3.98005 8.18083 6.08045 6.08042C8.18086 3.98002 11.0296 2.80002 14 2.80002ZM14 4.20002C12.7131 4.20002 11.4387 4.4535 10.2498 4.946C9.06076 5.43849 7.98042 6.16036 7.0704 7.07037C6.16039 7.98039 5.43853 9.06073 4.94603 10.2497C4.45353 11.4387 4.20005 12.7131 4.20005 14C4.20005 15.287 4.45353 16.5613 4.94603 17.7503C5.43853 18.9393 6.16039 20.0196 7.0704 20.9297C7.98042 21.8397 9.06076 22.5615 10.2498 23.054C11.4387 23.5465 12.7131 23.8 14 23.8C16.5992 23.8 19.0918 22.7675 20.9297 20.9297C22.7676 19.0918 23.8 16.5991 23.8 14C23.8 11.4009 22.7676 8.90823 20.9297 7.07037C19.0918 5.23252 16.5992 4.20002 14 4.20002ZM10.017 17.3978C11.029 18.4166 12.3928 19.0091 13.8281 19.0533C15.2633 19.0976 16.6611 18.5903 17.7338 17.6358L17.983 17.3978C18.106 17.2728 18.2715 17.1985 18.4466 17.1897C18.6217 17.1808 18.7938 17.238 18.9288 17.3499C19.0638 17.4619 19.1519 17.6204 19.1756 17.7941C19.1993 17.9679 19.1569 18.1442 19.0568 18.2882L18.977 18.3862L18.9448 18.417C18.2913 19.0664 17.5162 19.5807 16.6639 19.9306C15.8115 20.2804 14.8986 20.4589 13.9773 20.456C13.0559 20.453 12.1442 20.2685 11.2942 19.9132C10.4441 19.5578 9.67238 19.0385 9.02305 18.3848C8.89216 18.253 8.819 18.0746 8.81966 17.8888C8.82032 17.7031 8.89474 17.5252 9.02655 17.3943C9.15836 17.2634 9.33677 17.1903 9.52252 17.1909C9.70828 17.1916 9.88616 17.266 10.017 17.3978ZM17.5 10.5C17.8714 10.5 18.2274 10.6475 18.49 10.9101C18.7525 11.1726 18.9 11.5287 18.9 11.9C18.9 12.2713 18.7525 12.6274 18.49 12.89C18.2274 13.1525 17.8714 13.3 17.5 13.3C17.1287 13.3 16.7727 13.1525 16.5101 12.89C16.2475 12.6274 16.1 12.2713 16.1 11.9C16.1 11.5287 16.2475 11.1726 16.5101 10.9101C16.7727 10.6475 17.1287 10.5 17.5 10.5ZM10.5 10.5C10.8714 10.5 11.2274 10.6475 11.49 10.9101C11.7525 11.1726 11.9 11.5287 11.9 11.9C11.9 12.2713 11.7525 12.6274 11.49 12.89C11.2274 13.1525 10.8714 13.3 10.5 13.3C10.1287 13.3 9.77265 13.1525 9.5101 12.89C9.24755 12.6274 9.10005 12.2713 9.10005 11.9C9.10005 11.5287 9.24755 11.1726 9.5101 10.9101C9.77265 10.6475 10.1287 10.5 10.5 10.5Z" fill="#A7979B"/>
</svg>
