<svg width="27" height="24" viewBox="0 0 27 24" fill="none" xmlns="http://www.w3.org/2000/svg">
<path d="M5.78277 23.3555C4.45054 23.3557 3.17168 22.85 2.22221 21.9477L2.11749 21.8466C1.64044 21.3972 1.26139 20.8601 1.00268 20.267C0.743969 19.6739 0.610826 19.0368 0.611099 18.3933C0.609413 17.6966 0.750949 17.0065 1.02751 16.3629C1.30406 15.7194 1.71014 15.1353 2.22221 14.6444L14.7083 2.72106C15.977 1.44571 17.7137 0.702536 19.5444 0.651618C21.3751 0.600701 23.1532 1.24612 24.4958 2.44884C25.1013 3.03201 25.5806 3.72573 25.9056 4.48954C26.2306 5.25335 26.3949 6.07199 26.3889 6.89773C26.3817 7.81995 26.1859 8.7317 25.8126 9.58062C25.4394 10.4295 24.896 11.1989 24.2139 11.8444L12.9925 22.5777C12.9227 22.6683 12.8334 22.7432 12.7307 22.7971C12.6279 22.851 12.5143 22.8827 12.3976 22.8899C12.2809 22.8971 12.164 22.8798 12.055 22.839C11.946 22.7982 11.8474 22.735 11.7663 22.6537C11.6851 22.5725 11.6232 22.4752 11.5849 22.3685C11.5466 22.2619 11.5328 22.1484 11.5445 22.0361C11.5561 21.9238 11.593 21.8153 11.6525 21.7181C11.7119 21.6209 11.7926 21.5374 11.8889 21.4733L23.078 10.74C23.6094 10.2391 24.0331 9.64189 24.3248 8.98253C24.6165 8.32317 24.7704 7.61468 24.7778 6.89773C24.7836 6.27726 24.6612 5.66189 24.4178 5.08763C24.1743 4.51337 23.8147 3.99175 23.36 3.55329C22.3191 2.63774 20.9475 2.1533 19.5404 2.20421C18.1333 2.25512 16.8031 2.83731 15.8361 3.82551L3.39027 15.7488C3.0235 16.0927 2.73133 16.5036 2.53079 16.9576C2.33024 17.4117 2.22534 17.8997 2.22221 18.3933C2.22049 18.8267 2.3079 19.2561 2.47936 19.6567C2.65083 20.0572 2.90295 20.4209 3.2211 20.7266L3.32582 20.8277C4.04659 21.4686 4.99917 21.8105 5.97847 21.78C6.95778 21.7494 7.88551 21.3488 8.56193 20.6644L19.3161 10.3977C19.5195 10.1992 19.6798 9.96348 19.7877 9.7044C19.8956 9.44531 19.9489 9.16805 19.9444 8.88884C19.9462 8.64633 19.898 8.4059 19.8025 8.18157C19.7071 7.95724 19.5664 7.75348 19.3886 7.58218C18.9818 7.22199 18.4446 7.03072 17.893 7.04963C17.3414 7.06855 16.8196 7.29615 16.4403 7.68329L9.02915 14.7766C8.87747 14.9221 8.67216 15.0033 8.45839 15.0026C8.24463 15.0019 8.03991 14.9192 7.88929 14.7727C7.73867 14.6263 7.65448 14.428 7.65523 14.2217C7.65599 14.0153 7.74163 13.8176 7.89332 13.6722L15.3367 6.55551C16.0189 5.88065 16.9487 5.49181 17.9252 5.4729C18.9018 5.45398 19.8469 5.8065 20.5567 6.4544C20.8831 6.77523 21.1396 7.15593 21.3112 7.57405C21.4827 7.99216 21.5658 8.43922 21.5555 8.88884C21.5547 9.37302 21.4538 9.85217 21.2587 10.2982C21.0637 10.7443 20.7785 11.1483 20.4197 11.4866L9.69777 21.7844C8.65851 22.7862 7.25133 23.3509 5.78277 23.3555Z" fill="#A7979B"/>
</svg>
