<svg width="386" height="287" viewBox="0 0 386 287" fill="none" xmlns="http://www.w3.org/2000/svg">
<g clip-path="url(#clip0_1_9056)">
<path d="M385.213 252.214H0V252.405H385.213V252.214Z" fill="#EBEBEB"/>
<path d="M346.613 264.61H329.911V264.801H346.613V264.61Z" fill="#EBEBEB"/>
<path d="M265.54 260.615H239.259V260.806H265.54V260.615Z" fill="#EBEBEB"/>
<path d="M339.843 257.459H305.541V257.65H339.843V257.459Z" fill="#EBEBEB"/>
<path d="M133.294 261.344H124.711V261.535H133.294V261.344Z" fill="#EBEBEB"/>
<path d="M117.854 261.344H88.2778V261.535H117.854V261.344Z" fill="#EBEBEB"/>
<path d="M72.4209 258.09H51.0854V258.281H72.4209V258.09Z" fill="#EBEBEB"/>
<path d="M182.602 217.861H33.8331C31.4066 217.861 29.4375 215.887 29.4375 213.467V4.39463C29.4375 1.96861 31.4124 0 33.8331 0H182.602C185.028 0 186.997 1.9744 186.997 4.39463V213.461C186.997 215.887 185.023 217.861 182.602 217.861ZM33.8331 0.191071C31.5166 0.191071 29.6286 2.07862 29.6286 4.39463V213.461C29.6286 215.777 31.5166 217.664 33.8331 217.664H182.602C184.918 217.664 186.806 215.777 186.806 213.461V4.39463C186.806 2.07862 184.918 0.191071 182.602 0.191071H33.8331Z" fill="#EBEBEB"/>
<path d="M349.243 217.861H200.474C198.048 217.861 196.079 215.887 196.079 213.467V4.39463C196.079 1.96861 198.053 0 200.474 0H349.243C351.67 0 353.639 1.9744 353.639 4.39463V213.461C353.639 215.887 351.664 217.861 349.243 217.861ZM200.474 0.191071C198.158 0.191071 196.27 2.07862 196.27 4.39463V213.461C196.27 215.777 198.158 217.664 200.474 217.664H349.243C351.559 217.664 353.447 215.777 353.447 213.461V4.39463C353.447 2.07862 351.559 0.191071 349.243 0.191071H200.474Z" fill="#EBEBEB"/>
<path d="M88.5847 92.1771C97.4803 92.1771 104.696 84.9685 104.696 76.0693C104.696 67.1758 97.4861 59.9614 88.5847 59.9614H86.6099V92.1713H88.5847V92.1771Z" fill="#E0E0E0"/>
<path d="M86.6043 92.1771C95.5025 92.1771 102.716 84.9654 102.716 76.0693C102.716 67.1732 95.5025 59.9614 86.6043 59.9614C77.7061 59.9614 70.4927 67.1732 70.4927 76.0693C70.4927 84.9654 77.7061 92.1771 86.6043 92.1771Z" fill="#F5F5F5"/>
<path d="M85.8688 78.0958C73.9791 78.0958 64.3018 68.4265 64.3018 56.5338V43.6568C64.3018 42.5393 65.211 41.6302 66.3287 41.6302C67.4465 41.6302 68.3557 42.5393 68.3557 43.6568V56.5396C68.3557 66.1973 76.2146 74.0486 85.8688 74.0486C86.9866 74.0486 87.8958 74.9576 87.8958 76.0751C87.8958 77.1926 86.9866 78.0958 85.8688 78.0958Z" fill="#E0E0E0"/>
<path d="M48.4101 54.9936H84.2529C86.7085 54.9936 88.498 52.666 87.8725 50.2921L84.7626 38.5558C84.3282 36.9172 82.8456 35.7708 81.143 35.7708H51.5143C49.8174 35.7708 48.3291 36.9114 47.8947 38.5558L44.7848 50.2921C44.1593 52.6718 45.9488 54.9936 48.4101 54.9936Z" fill="#F5F5F5"/>
<path d="M316.087 92.1771C324.983 92.1771 332.199 84.9685 332.199 76.0693C332.199 67.1758 324.988 59.9614 316.087 59.9614H314.112V92.1713H316.087V92.1771Z" fill="#E0E0E0"/>
<path d="M314.113 92.1771C323.011 92.1771 330.224 84.9654 330.224 76.0693C330.224 67.1732 323.011 59.9614 314.113 59.9614C305.214 59.9614 298.001 67.1732 298.001 76.0693C298.001 84.9654 305.214 92.1771 314.113 92.1771Z" fill="#F5F5F5"/>
<path d="M313.371 78.0958C301.482 78.0958 291.804 68.4265 291.804 56.5338V43.6568C291.804 42.5393 292.713 41.6302 293.831 41.6302C294.949 41.6302 295.858 42.5393 295.858 43.6568V56.5396C295.858 66.1973 303.717 74.0486 313.371 74.0486C314.489 74.0486 315.398 74.9576 315.398 76.0751C315.398 77.1926 314.489 78.0958 313.371 78.0958Z" fill="#E0E0E0"/>
<path d="M275.913 54.9936H311.755C314.211 54.9936 316.001 52.666 315.375 50.2921L312.265 38.5558C311.831 36.9172 310.348 35.7708 308.645 35.7708H279.023C277.326 35.7708 275.837 36.9114 275.403 38.5558L272.293 50.2921C271.668 52.6718 273.457 54.9936 275.913 54.9936Z" fill="#F5F5F5"/>
<path d="M103.224 200.958H114.94V155.57H103.224V200.958Z" fill="#E6E6E6"/>
<path d="M71.46 200.96H110.343L116.216 147.831H77.3324L71.46 200.96Z" fill="#F0F0F0"/>
<path d="M67.2437 200.96H107.407L113.279 147.831H73.1161L67.2437 200.96Z" fill="#F5F5F5"/>
<path d="M104.505 196.768L109.457 152.017H76.0176L71.0718 196.768H104.505Z" fill="white"/>
<path d="M97.602 185.923L97.8047 184.1C99.044 172.873 92.0365 162.868 82.9267 162.868L82.724 164.691C81.4846 175.918 88.4922 185.923 97.602 185.923Z" fill="#F5F5F5"/>
<path d="M45.5184 252.211H80.064V200.957H45.5184L45.5184 252.211Z" fill="#E6E6E6"/>
<path d="M48.9948 252.213H45.52V242.33H52.6376L48.9948 252.213Z" fill="#F0F0F0"/>
<path d="M142.336 252.211H176.882V200.957H142.336V252.211Z" fill="#E6E6E6"/>
<path d="M45.5216 246.147H145.371V200.956H45.5216V246.147Z" fill="#F0F0F0"/>
<path d="M141.894 252.213H145.369V242.33H138.251L141.894 252.213Z" fill="#F0F0F0"/>
<path d="M48.2205 222.018H142.678V203.779H48.2205V222.018Z" fill="#E6E6E6"/>
<path d="M89.1465 215.673H101.743C107.216 215.673 112.445 213.42 116.21 209.448H74.6738C78.444 213.42 83.6736 215.673 89.1465 215.673Z" fill="#F0F0F0"/>
<path d="M48.2205 243.204H142.678V224.965H48.2205V243.204Z" fill="#E6E6E6"/>
<path d="M89.1465 236.853H101.743C107.216 236.853 112.445 234.6 116.21 230.628H74.6738C78.444 234.606 83.6736 236.853 89.1465 236.853Z" fill="#F0F0F0"/>
<path d="M139.045 198.864H139.937C139.925 197.029 139.942 192.362 140.029 181.679C140.192 162.312 140.498 161.131 140.498 161.131L138.373 170.07C137.029 179.977 138.767 189.924 139.045 198.864Z" fill="#E6E6E6"/>
<path d="M137.284 168.745C134.227 165.103 127.694 164.037 120.999 163.134C118.37 162.775 127.902 168.779 132.559 173.041C136.178 176.353 138.489 177.267 139.485 180.568C140.001 176.445 139.919 171.883 137.284 168.745Z" fill="#E6E6E6"/>
<path d="M141.339 175.258C144.396 171.616 150.929 170.551 157.624 169.648C160.253 169.295 150.721 175.293 146.064 179.554C142.445 182.866 140.134 183.781 139.138 187.081C138.622 182.959 138.704 178.396 141.339 175.258Z" fill="#E6E6E6"/>
<path d="M140.03 160.28C142.323 155.925 148.091 151.82 154.566 150.269C157.108 149.661 148.676 158.311 145.473 163.892C142.983 168.229 139.682 173.319 139.172 176.978C138.396 169.729 137.736 164.634 140.03 160.28Z" fill="#E6E6E6"/>
<path d="M139.757 200.96C137.024 200.96 134.765 199.594 134.609 197.839L134.151 194.846H145.352L144.894 197.839C144.75 199.588 142.491 200.96 139.757 200.96Z" fill="#F0F0F0"/>
<path d="M146.087 195.998H133.433L133.068 192.663H146.446L146.087 195.998Z" fill="#F0F0F0"/>
<path d="M130.618 132.304L254.043 132.304V19.7456L130.618 19.7456V132.304Z" fill="#E6E6E6"/>
<path d="M127.843 132.304L252.838 132.304V19.7456L127.843 19.7456L127.843 132.304Z" fill="#F5F5F5"/>
<path d="M247.851 127.263L247.851 24.7914L132.828 24.7914V127.263L247.851 127.263Z" fill="#FAFAFA"/>
<path d="M233.74 127.265L188.469 24.7928H173.087L218.358 127.265H233.74Z" fill="white"/>
<path d="M214.003 127.265L168.732 24.7928H158.139L203.41 127.265H214.003Z" fill="white"/>
<path d="M175.537 127.26L175.537 24.7883H169.589L169.589 127.26H175.537Z" fill="#E6E6E6"/>
<path d="M215.075 127.26L215.075 24.7883H209.127L209.127 127.26H215.075Z" fill="#E6E6E6"/>
<path d="M174.464 130.458L174.464 21.0385H166.947L166.947 130.458H174.464Z" fill="#F5F5F5"/>
<path d="M214.001 130.458L214.001 21.0385H206.484L206.484 130.458H214.001Z" fill="#F5F5F5"/>
<path d="M133.355 127.263L133.355 24.7916H132.828L132.828 127.263H133.355Z" fill="#E6E6E6"/>
<path d="M125.748 13.2649H259.465C259.819 13.2649 260.108 13.5544 260.108 13.9076C260.108 14.2608 259.819 14.5503 259.465 14.5503H125.748C125.395 14.5503 125.105 14.2608 125.105 13.9076C125.105 13.5544 125.395 13.2649 125.748 13.2649Z" fill="#E6E6E6"/>
<path d="M254.044 17.509C254.519 17.509 254.913 17.1211 254.913 16.6405V14.7761C254.913 14.3013 254.525 13.9076 254.044 13.9076C253.57 13.9076 253.176 14.2955 253.176 14.7761V16.6405C253.176 17.1153 253.57 17.509 254.044 17.509Z" fill="#E6E6E6"/>
<path d="M135.443 17.509C135.918 17.509 136.312 17.1211 136.312 16.6405V14.7761C136.312 14.3013 135.924 13.9076 135.443 13.9076C134.968 13.9076 134.574 14.2955 134.574 14.7761V16.6405C134.574 17.1153 134.968 17.509 135.443 17.509Z" fill="#E6E6E6"/>
<path opacity="0.6" d="M125.951 102.05L250.859 102.05V13.9026L125.951 13.9026L125.951 102.05Z" fill="#E0E0E0"/>
<path d="M263.195 176.167H239.601C237.881 176.167 236.485 174.772 236.485 173.052V161.026C236.485 159.307 237.881 157.911 239.601 157.911H263.195C264.915 157.911 266.31 159.307 266.31 161.026V173.052C266.31 174.772 264.915 176.167 263.195 176.167Z" fill="#FAFAFA"/>
<path d="M265.262 158.45H237.527C236.948 158.45 236.479 157.981 236.479 157.402V155.584C236.479 155.005 236.948 154.536 237.527 154.536H265.262C265.841 154.536 266.31 155.005 266.31 155.584V157.402C266.31 157.981 265.841 158.45 265.262 158.45Z" fill="#E6E6E6"/>
<path d="M236.925 196.415C236.925 196.415 237.313 209.251 252.278 209.251C267.237 209.251 267.631 196.415 267.631 196.415H236.925Z" fill="#F0F0F0"/>
<path d="M271.036 196.415C271.036 196.415 271.424 209.251 286.389 209.251C301.348 209.251 301.742 196.415 301.742 196.415H271.036Z" fill="#F0F0F0"/>
<path d="M295.754 176.167H263.333C260.971 176.167 259.048 174.251 259.048 171.883V153.922C259.048 151.56 260.965 149.637 263.333 149.637H295.754C298.116 149.637 300.039 151.554 300.039 153.922V171.883C300.039 174.251 298.116 176.167 295.754 176.167Z" fill="#F0F0F0"/>
<path d="M298.597 150.384H260.484C259.691 150.384 259.048 149.742 259.048 148.948V146.453C259.048 145.66 259.691 145.017 260.484 145.017H298.597C299.391 145.017 300.033 145.66 300.033 146.453V148.948C300.039 149.742 299.391 150.384 298.597 150.384Z" fill="#F5F5F5"/>
<path d="M225.655 252.213H229.535V188.557H225.655V252.213Z" fill="#E6E6E6"/>
<path d="M337.764 176.167H316.742V188.558H337.764V176.167Z" fill="#E6E6E6"/>
<path d="M212.206 188.56H316.74V176.17H212.206V188.56Z" fill="#F5F5F5"/>
<path d="M337.764 209.251H316.742V221.642H337.764V209.251Z" fill="#E6E6E6"/>
<path d="M212.206 221.635H316.74V209.244H212.206V221.635Z" fill="#F5F5F5"/>
<path d="M330.19 252.213H334.07V188.557H330.19V252.213Z" fill="#E6E6E6"/>
<path d="M312.862 252.213H316.742V188.557H312.862V252.213Z" fill="#F5F5F5"/>
<path d="M212.209 252.213H216.089V188.557H212.209V252.213Z" fill="#F5F5F5"/>
<path d="M192.603 287C275.102 287 341.98 283.096 341.98 278.28C341.98 273.464 275.102 269.56 192.603 269.56C110.105 269.56 43.2266 273.464 43.2266 278.28C43.2266 283.096 110.105 287 192.603 287Z" fill="#F5F5F5"/>
<path d="M200.631 239.192H102.345C99.0963 239.192 96.328 236.557 96.1601 233.315L87.363 62.6655C87.195 59.4172 89.6911 56.7886 92.9401 56.7886H191.225C194.474 56.7886 197.243 59.423 197.411 62.6655L206.208 233.315C206.376 236.563 203.874 239.192 200.631 239.192Z" fill="#00839E"/>
<path opacity="0.8" d="M200.631 239.192H102.345C99.0963 239.192 96.328 236.557 96.1601 233.315L87.363 62.6655C87.195 59.4172 89.6911 56.7886 92.9401 56.7886H191.225C194.474 56.7886 197.243 59.423 197.411 62.6655L206.208 233.315C206.376 236.563 203.874 239.192 200.631 239.192Z" fill="white"/>
<path d="M181.525 51.2244H170.654V51.9944H181.525V51.2244Z" fill="#00839E"/>
<path d="M166.884 51.2244H162.906V51.9944H166.884V51.2244Z" fill="#00839E"/>
<path d="M204.852 228.37H110.853C107.749 228.37 105.102 225.852 104.94 222.748L96.5249 59.5389C96.3627 56.4354 98.7546 53.9167 101.859 53.9167H195.864C198.968 53.9167 201.615 56.4354 201.777 59.5389L210.192 222.748C210.348 225.852 207.962 228.37 204.852 228.37Z" fill="#00839E"/>
<path d="M204.853 224.618H110.853C109.758 224.618 108.745 223.657 108.693 222.557L100.278 59.3478C100.249 58.7514 100.486 58.3692 100.695 58.1492C100.903 57.935 101.268 57.6744 101.859 57.6744H195.864C196.959 57.6744 197.972 58.6356 198.025 59.7357L206.439 222.945C206.468 223.541 206.231 223.923 206.022 224.143C205.814 224.358 205.443 224.618 204.853 224.618ZM101.865 57.8655C101.343 57.8655 101.019 58.0913 100.84 58.2824C100.66 58.4735 100.446 58.8093 100.475 59.3362L108.89 222.545C108.942 223.547 109.863 224.421 110.859 224.421H204.858C205.38 224.421 205.704 224.196 205.883 224.005C206.063 223.813 206.277 223.478 206.248 222.945L197.833 59.7473C197.781 58.7456 196.86 57.8713 195.864 57.8713H101.865V57.8655Z" fill="white"/>
<path opacity="0.3" d="M171.986 117.152C182.676 106.184 181.979 88.1715 170.429 76.9192C158.879 65.667 140.849 65.4364 130.159 76.4043C119.469 87.3722 120.166 105.385 131.716 116.637C143.266 127.89 161.295 128.12 171.986 117.152Z" fill="white"/>
<path d="M174.094 96.7919C174.297 100.77 173.48 104.498 171.876 107.758C168.361 114.932 161.012 119.813 152.255 119.813C143.504 119.813 135.645 114.932 131.395 107.758C129.454 104.504 128.25 100.77 128.047 96.7919C127.393 84.077 137.169 73.7765 149.881 73.7765C162.604 73.7707 173.44 84.077 174.094 96.7919Z" fill="white"/>
<path d="M171.876 107.752C168.361 114.926 161.012 119.807 152.255 119.807C143.504 119.807 135.645 114.926 131.395 107.752C136.989 103.879 143.829 101.621 151.317 101.621C158.811 101.621 165.882 103.885 171.876 107.752Z" fill="#00839E"/>
<path d="M158.204 96.2475C162.057 92.2946 161.806 85.8029 157.644 81.7479C153.481 77.6929 146.984 77.6101 143.131 81.5631C139.278 85.516 139.529 92.0077 143.691 96.0627C147.854 100.118 154.351 100.2 158.204 96.2475Z" fill="#00839E"/>
<path d="M191.382 164.883H117.779C116.465 164.883 115.347 163.817 115.278 162.503L114.722 151.693C114.652 150.379 115.666 149.313 116.98 149.313H190.583C191.897 149.313 193.015 150.379 193.085 151.693L193.641 162.503C193.71 163.817 192.697 164.883 191.382 164.883Z" fill="white"/>
<path d="M168.842 143.378H138.102C136.787 143.378 135.669 142.313 135.6 140.999L135.484 138.706C135.414 137.392 136.428 136.326 137.742 136.326H168.483C169.798 136.326 170.915 137.392 170.985 138.706L171.101 140.999C171.17 142.313 170.157 143.378 168.842 143.378Z" fill="#F8B518"/>
<path d="M180.274 216.709H134.233C131.997 216.709 130.086 214.897 129.97 212.656L129.698 207.347C129.582 205.112 131.302 203.294 133.543 203.294H179.585C181.82 203.294 183.731 205.106 183.847 207.347L184.119 212.656C184.235 214.897 182.515 216.709 180.274 216.709Z" fill="#F8B518"/>
<path d="M192.726 190.949H119.123C117.809 190.949 116.691 189.884 116.621 188.57L116.065 177.754C115.996 176.44 117.009 175.374 118.324 175.374H191.927C193.241 175.374 194.359 176.44 194.428 177.754L194.984 188.564C195.054 189.884 194.04 190.949 192.726 190.949Z" fill="white"/>
<path d="M127.144 157.101C127.219 158.554 126.101 159.735 124.648 159.735C123.194 159.735 121.955 158.554 121.88 157.101C121.804 155.647 122.922 154.466 124.376 154.466C125.829 154.466 127.069 155.647 127.144 157.101Z" fill="#263238"/>
<path d="M135.235 157.101C135.31 158.554 134.192 159.735 132.739 159.735C131.285 159.735 130.046 158.554 129.97 157.101C129.895 155.647 131.013 154.466 132.466 154.466C133.92 154.466 135.159 155.647 135.235 157.101Z" fill="#263238"/>
<path d="M143.331 157.101C143.406 158.554 142.288 159.735 140.835 159.735C139.381 159.735 138.142 158.554 138.067 157.101C137.991 155.647 139.109 154.466 140.563 154.466C142.016 154.466 143.256 155.647 143.331 157.101Z" fill="#263238"/>
<path d="M151.427 157.101C151.502 158.554 150.385 159.735 148.931 159.735C147.477 159.735 146.238 158.554 146.163 157.101C146.087 155.647 147.205 154.466 148.659 154.466C150.112 154.466 151.352 155.647 151.427 157.101Z" fill="#263238"/>
<path d="M128.488 183.162C128.563 184.615 127.445 185.796 125.992 185.796C124.538 185.796 123.299 184.615 123.223 183.162C123.148 181.708 124.266 180.527 125.719 180.527C127.167 180.527 128.412 181.708 128.488 183.162Z" fill="#263238"/>
<path d="M136.579 183.162C136.654 184.615 135.536 185.796 134.082 185.796C132.629 185.796 131.389 184.615 131.314 183.162C131.239 181.708 132.357 180.527 133.81 180.527C135.264 180.527 136.503 181.708 136.579 183.162Z" fill="#263238"/>
<path d="M144.675 183.162C144.75 184.615 143.632 185.796 142.179 185.796C140.725 185.796 139.486 184.615 139.41 183.162C139.335 181.708 140.453 180.527 141.906 180.527C143.36 180.527 144.599 181.708 144.675 183.162Z" fill="#263238"/>
<path d="M152.771 183.162C152.846 184.615 151.728 185.796 150.275 185.796C148.821 185.796 147.582 184.615 147.507 183.162C147.431 181.708 148.549 180.527 150.003 180.527C151.456 180.527 152.696 181.708 152.771 183.162Z" fill="#263238"/>
<path d="M160.867 183.162C160.942 184.615 159.825 185.796 158.371 185.796C156.917 185.796 155.678 184.615 155.603 183.162C155.527 181.708 156.645 180.527 158.099 180.527C159.552 180.527 160.792 181.708 160.867 183.162Z" fill="#263238"/>
<path d="M168.958 183.162C169.033 184.615 167.915 185.796 166.462 185.796C165.008 185.796 163.769 184.615 163.694 183.162C163.618 181.708 164.736 180.527 166.19 180.527C167.643 180.527 168.883 181.708 168.958 183.162Z" fill="#263238"/>
<path d="M256.575 93.7174C256.766 94.0011 256.865 94.1574 256.992 94.3659L257.334 94.9391C257.56 95.3212 257.751 95.7034 257.948 96.0797C258.336 96.844 258.695 97.6025 259.025 98.3726C259.685 99.9127 260.23 101.488 260.693 103.068C261.643 106.235 262.222 109.478 262.517 112.726L262.575 113.334C262.587 113.421 262.593 113.56 262.598 113.699L262.616 114.116C262.627 114.666 262.598 115.204 262.523 115.72C262.378 116.75 262.1 117.705 261.759 118.586C261.064 120.34 260.114 121.834 259.095 123.194C257.004 125.898 254.635 128.064 251.925 129.98L249.805 127.496C251.711 125.296 253.552 122.853 254.919 120.421C255.614 119.205 256.147 117.954 256.483 116.785C256.639 116.2 256.72 115.638 256.737 115.135C256.755 114.88 256.737 114.643 256.714 114.417L256.691 114.255C256.685 114.203 256.68 114.15 256.662 114.046L256.564 113.502C256.06 110.613 255.371 107.77 254.467 105.025C254.027 103.647 253.477 102.321 252.921 101.013C252.649 100.359 252.342 99.7217 252.029 99.1021L251.548 98.1989L251.311 97.7704L251.114 97.4346L256.575 93.7174Z" fill="#C08B89"/>
<path d="M249.382 130.032L252.174 135.921L254.386 130.941C254.386 130.941 252.423 126.628 249.77 127.022L249.382 130.032Z" fill="#B7817E"/>
<path d="M254.172 136.216L256.39 132.58L254.386 130.941L252.174 135.921L254.172 136.216Z" fill="#B7817E"/>
<path d="M241.633 272.102C242.23 272.102 242.878 271.981 243.336 271.871C243.394 271.859 243.44 271.807 243.452 271.749C243.463 271.691 243.434 271.628 243.382 271.593C243.162 271.448 241.199 270.18 240.452 270.522C240.336 270.574 240.185 270.695 240.145 270.95C240.099 271.292 240.18 271.564 240.4 271.761C240.678 272.015 241.135 272.102 241.633 272.102ZM242.902 271.651C241.778 271.877 240.933 271.836 240.608 271.541C240.469 271.413 240.417 271.234 240.452 270.996C240.469 270.869 240.527 270.823 240.579 270.805C240.973 270.62 242.102 271.17 242.902 271.651Z" fill="#00839E"/>
<path d="M243.302 271.871C243.331 271.871 243.354 271.865 243.377 271.848C243.423 271.819 243.452 271.772 243.452 271.714C243.452 271.633 243.441 269.781 242.74 269.155C242.554 268.987 242.334 268.924 242.091 268.953C241.709 268.999 241.605 269.242 241.576 269.381C241.431 270.111 242.607 271.5 243.22 271.848C243.249 271.865 243.273 271.871 243.302 271.871ZM242.201 269.259C242.329 269.259 242.439 269.306 242.537 269.393C242.954 269.763 243.099 270.805 243.134 271.425C242.52 270.933 241.79 269.891 241.877 269.445C241.888 269.369 241.935 269.288 242.126 269.259C242.155 269.259 242.178 269.259 242.201 269.259Z" fill="#00839E"/>
<path d="M234.354 268.958C234.388 268.918 234.406 268.866 234.388 268.814C234.371 268.75 234.313 268.709 234.249 268.704C233.931 268.686 231.163 268.57 230.537 269.248C230.525 269.265 230.508 269.277 230.496 269.294C230.392 269.433 230.369 269.601 230.433 269.769C230.537 270.058 230.722 270.244 230.995 270.33C231.892 270.608 233.467 269.601 234.33 268.981C234.342 268.97 234.348 268.964 234.354 268.958ZM230.769 269.445C231.11 269.074 232.634 268.97 233.78 268.993C232.581 269.804 231.591 270.192 231.087 270.035C230.913 269.983 230.792 269.861 230.722 269.665C230.693 269.589 230.705 269.531 230.746 269.474C230.751 269.462 230.757 269.456 230.769 269.445Z" fill="#00839E"/>
<path d="M234.354 268.958C234.359 268.952 234.365 268.941 234.371 268.929C234.4 268.883 234.4 268.825 234.371 268.779C234.336 268.715 233.473 267.198 232.454 266.926C232.141 266.839 231.846 266.88 231.574 267.042C231.209 267.256 231.186 267.505 231.232 267.673C231.429 268.385 233.392 269.016 234.238 269.01C234.284 269.005 234.325 268.987 234.354 268.958ZM231.591 267.412C231.62 267.378 231.666 267.343 231.736 267.302C231.939 267.187 232.147 267.158 232.379 267.221C233.05 267.401 233.676 268.258 233.96 268.686C233.05 268.582 231.655 268.02 231.533 267.592C231.527 267.563 231.51 267.499 231.591 267.412Z" fill="#00839E"/>
<path d="M242.838 71.1537C242.085 74.9809 240.4 83.3359 243.081 85.8893C243.081 85.8893 242.033 89.7744 234.921 89.7744C227.097 89.7744 231.18 85.8893 231.18 85.8893C235.448 84.8703 235.338 81.7031 234.597 78.727L242.838 71.1537Z" fill="#B7817E"/>
<path d="M229.796 62.127C229.842 62.127 229.888 62.1154 229.935 62.0922C230.085 62.017 230.149 61.8317 230.074 61.6811C229.315 60.1699 227.914 59.9962 227.856 59.9847C227.688 59.9615 227.537 60.0889 227.52 60.2568C227.502 60.4247 227.618 60.5752 227.786 60.5926C227.833 60.5984 228.921 60.7489 229.529 61.9533C229.576 62.0633 229.686 62.127 229.796 62.127Z" fill="#263238"/>
<path d="M227.468 65.4679C227.468 65.4679 226.315 67.5813 225.221 68.5366C225.823 69.2546 227.022 69.1098 227.022 69.1098L227.468 65.4679Z" fill="#AE8686"/>
<path d="M228.035 64.6399C227.972 65.1552 227.647 65.5432 227.306 65.4969C226.97 65.4563 226.744 65.0047 226.808 64.4836C226.871 63.9683 227.196 63.5804 227.537 63.6267C227.879 63.673 228.099 64.1246 228.035 64.6399Z" fill="#263238"/>
<path d="M227.688 63.6787L226.489 63.1692C226.489 63.1634 227.01 64.2114 227.688 63.6787Z" fill="#263238"/>
<path d="M241.153 267.493L234.869 268.964L231.053 254.512L237.336 253.042L241.153 267.493Z" fill="#B7817E"/>
<path d="M250.807 271.72H244.35L244.859 256.782H251.311L250.807 271.72Z" fill="#B7817E"/>
<path d="M243.84 270.973H251.091C251.357 270.973 251.571 271.159 251.606 271.413L252.434 277.145C252.521 277.742 252.006 278.303 251.398 278.292C248.873 278.246 247.651 278.101 244.465 278.101C242.502 278.101 239.641 278.303 236.931 278.303C234.284 278.303 234.076 275.628 235.205 275.385C240.261 274.297 241.06 272.797 242.763 271.367C243.07 271.112 243.452 270.973 243.84 270.973Z" fill="#263238"/>
<path d="M234.313 267.997L240.898 264.969C241.136 264.859 241.408 264.934 241.553 265.154L244.703 270.018C245.027 270.522 244.801 271.245 244.246 271.494C241.929 272.513 240.765 272.884 237.863 274.216C236.08 275.038 232.483 276.914 230.022 278.049C227.613 279.155 226.31 276.81 227.236 276.115C231.377 273.011 232.559 270.823 233.508 268.808C233.671 268.449 233.966 268.159 234.313 267.997Z" fill="#263238"/>
<path opacity="0.2" d="M231.053 254.512L233.097 262.254L239.311 260.493L237.342 253.047L231.053 254.512Z" fill="#F8B518"/>
<path opacity="0.2" d="M251.311 256.782H244.853L244.599 264.483H251.056L251.311 256.782Z" fill="#F8B518"/>
<path d="M254.206 87.3541C256.888 87.9389 259.749 97.5851 259.749 97.5851L252.168 105.645C252.168 105.645 245.878 96.5892 247.158 93.26C248.502 89.7859 251.038 86.6593 254.206 87.3541Z" fill="#263238"/>
<path d="M249.961 93.4916C248.606 92.2525 247.691 92.6231 247.066 93.6074C246.452 96.4735 250.1 102.472 251.571 104.747C252.249 102.032 253.025 96.3114 249.961 93.4916Z" fill="#F8B518"/>
<path d="M220.269 87.5394C220.269 87.5394 217.194 88.6222 223.356 126.477C233.757 126.477 244.506 126.477 249.568 126.477C249.128 115.812 249.116 109.235 254.213 87.3484C254.213 87.3484 248.722 86.1556 243.082 85.8835C238.668 85.6693 235.055 85.5303 231.18 85.8835C226.066 86.3525 220.269 87.5394 220.269 87.5394Z" fill="#263238"/>
<path d="M220.038 102.072C220.206 103.914 220.431 105.986 220.721 108.326C222.87 106.392 224.624 100.897 223.982 97.6893C222.482 98.8068 221.092 100.532 220.038 102.072Z" fill="#F8B518"/>
<path d="M222.835 96.3286C221.41 99.93 219.841 103.352 218.069 106.768C216.302 110.178 214.42 113.537 211.918 116.779L211.426 117.387L211.177 117.688C211.09 117.792 211.026 117.879 210.887 118.018C210.412 118.545 209.897 118.997 209.364 119.373C208.304 120.131 207.204 120.612 206.144 120.983C204.013 121.701 201.957 121.955 199.947 122.071C195.922 122.233 192.112 121.863 188.266 121.035L188.695 117.798C190.467 117.81 192.32 117.769 194.115 117.653C195.917 117.561 197.694 117.37 199.403 117.063C201.106 116.779 202.756 116.345 204.134 115.743C204.812 115.441 205.403 115.077 205.837 114.706C206.057 114.521 206.225 114.336 206.364 114.156C206.393 114.133 206.463 114.029 206.521 113.948L206.7 113.693L207.059 113.189C208.959 110.381 210.627 107.121 212.213 103.861C213.777 100.584 215.283 97.1913 216.702 93.8737L222.835 96.3286Z" fill="#C08B89"/>
<path d="M220.269 87.5394C217.061 88.321 213.117 97.1277 213.117 97.1277L219.777 106.907C219.777 106.907 228.638 95.7497 227.589 92.3451C226.483 88.79 224.161 86.5898 220.269 87.5394Z" fill="#263238"/>
<path d="M190.548 118.279L184.994 115.714L184.438 121.232C184.438 121.232 189.077 122.598 191.37 121.197L190.548 118.279Z" fill="#B7817E"/>
<path d="M181.67 115.158L181.143 119.361L184.438 121.232L185 115.714L181.67 115.158Z" fill="#B7817E"/>
<path d="M245.624 65.0163C244.448 71.31 244.089 74.0024 240.481 76.8569C235.054 81.1589 227.578 78.3391 226.848 71.8196C226.194 65.9543 228.221 56.6439 234.742 54.8895C241.17 53.1583 246.799 58.7225 245.624 65.0163Z" fill="#B7817E"/>
<path d="M231.794 66.3422C231.435 69.5498 231.296 77.8933 238.35 78.1538C246.99 78.4723 249.579 71.0958 248.809 68.1429C253.303 64.4836 253.952 58.1956 248.901 53.3783C243.846 48.5668 232.72 51.2534 229.616 55.9433C225.759 61.7565 231.794 66.3422 231.794 66.3422Z" fill="#263238"/>
<path d="M240.452 55.2485C240.035 51.8613 240.359 49.528 243.527 49.528C246.695 49.528 251.027 50.6802 252.62 53.9226C254.206 57.165 254.34 62.2371 249.909 61.7217C245.473 61.2064 240.95 59.3015 240.452 55.2485Z" fill="#00839E"/>
<path d="M245.363 54.4321C244.61 50.3906 248.206 39.0306 256.986 38.2895C261.052 37.9479 262.934 42.3251 260.808 43.0431C264.648 42.9968 267.127 48.0862 263.53 48.8563C266.368 50.6686 265.662 54.4031 261.619 56.2328C258.637 57.5818 246.405 60.0194 245.363 54.4321Z" fill="#263238"/>
<path d="M254.739 58.7688C251.913 58.7688 248.959 58.3519 247.129 57.1302C246.017 56.3891 245.409 55.399 245.317 54.2005C245.311 54.0963 245.386 54.0036 245.496 53.9921C245.606 53.9863 245.693 54.0615 245.705 54.1715C245.786 55.2485 246.336 56.1402 247.344 56.8118C250.83 59.1452 258.886 58.3925 261.411 57.5645C263.583 56.8581 265.054 55.4801 265.343 53.8936C265.558 52.724 265.1 51.6181 264.052 50.7786C263.971 50.7091 263.953 50.5933 264.023 50.5065C264.087 50.4254 264.208 50.408 264.295 50.4775C265.442 51.3981 265.957 52.6661 265.72 53.9631C265.401 55.6943 263.832 57.1824 261.527 57.9351C260.212 58.3635 257.542 58.7688 254.739 58.7688Z" fill="#263238"/>
<path d="M229.831 65.491C229.055 66.5621 228.835 67.8939 229.003 68.9708C229.257 70.5862 230.833 70.6962 231.974 69.6598C232.999 68.7276 234.105 66.7648 233.265 65.4273C232.437 64.1014 230.717 64.2635 229.831 65.491Z" fill="#B7817E"/>
<path d="M230.276 126.483C230.276 126.483 234.023 170.765 237.909 195.72C241.048 215.875 243.521 262.995 243.521 262.995H252.324C252.324 262.995 255.451 217.288 253.859 197.347C249.828 146.899 258.816 142.788 249.567 126.477H230.276V126.483Z" fill="#00839E"/>
<path d="M241.356 143.216C237.805 146.847 235.101 151.183 233.045 155.758C234.07 165.711 235.286 176.752 236.583 186.427C240.585 176.312 244.014 160.754 241.356 143.216Z" fill="#F8B518"/>
<path d="M224.115 126.199C224.115 126.199 215.989 174.564 214.704 196.363C217.895 216.524 230.948 259.127 230.948 259.127L238.952 256.226C238.952 256.226 234.522 209.767 229.68 197.046C240.521 160.557 248.485 151.334 246.168 126.477C240.643 126.483 224.115 126.199 224.115 126.199Z" fill="#00839E"/>
<path d="M229.877 261.258L240.695 258.322L240.081 254.009L228.499 257.141L229.877 261.258Z" fill="#263238"/>
<path d="M242.317 263.168H253.523L254.114 259.237L242.253 258.837L242.317 263.168Z" fill="#263238"/>
<path d="M249.955 124.943L251.137 127.288C251.23 127.467 251.015 127.653 250.708 127.653H223.222C222.985 127.653 222.788 127.537 222.777 127.386L222.539 125.041C222.522 124.879 222.73 124.74 222.985 124.74H249.527C249.724 124.746 249.898 124.827 249.955 124.943Z" fill="#00839E"/>
<path d="M249.955 124.943L251.137 127.288C251.23 127.467 251.015 127.653 250.708 127.653H223.222C222.985 127.653 222.788 127.537 222.777 127.386L222.539 125.041C222.522 124.879 222.73 124.74 222.985 124.74H249.527C249.724 124.746 249.898 124.827 249.955 124.943Z" fill="#F8B518"/>
<path d="M246.388 127.908H247.101C247.24 127.908 247.35 127.832 247.338 127.745L247.002 124.7C246.99 124.613 246.869 124.538 246.724 124.538H246.012C245.873 124.538 245.763 124.613 245.774 124.7L246.11 127.745C246.128 127.838 246.249 127.908 246.388 127.908Z" fill="#00839E"/>
<path d="M236.85 105.465C236.676 105.465 236.525 105.35 236.479 105.182C233.966 95.8945 228.742 88.2632 226.252 87.0821C225.974 86.9489 225.742 86.9142 225.603 86.9779C225.406 87.0647 225.18 86.9779 225.093 86.7868C225.006 86.5957 225.093 86.3641 225.284 86.2773C225.643 86.1151 226.078 86.1557 226.582 86.3873C229.24 87.6437 234.51 95.1939 237.145 104.695C239.033 104.672 241.946 104.435 242.653 104.377C243.533 103.329 249.996 95.2576 247.575 86.4278C247.518 86.2252 247.639 86.0109 247.848 85.953C248.05 85.8951 248.265 86.0167 248.323 86.2252C251.016 96.0566 243.209 104.915 243.133 105.008C243.07 105.083 242.977 105.124 242.879 105.135C242.832 105.13 238.993 105.465 236.85 105.465Z" fill="#00839E"/>
<path d="M249.608 110.908C245.409 103.039 243.689 102.489 242.942 99.9592C242.942 99.9592 243.62 98.0485 245.334 96.1146C244.819 95.9698 243.73 95.7556 243.046 95.6224C243.122 95.2808 243.203 94.9392 243.284 94.6092C242.716 94.4528 241.541 94.615 240.933 94.7134L240.904 93.9375C240.904 93.9375 238.772 93.5091 237.921 93.7465C238.008 94.1054 238.095 94.476 238.182 94.8581C237.435 95.0029 236.236 95.2403 235.674 95.3966C237.307 97.2378 237.898 99.2065 238.025 99.6928C235.761 103.578 226.964 128.585 241.274 130.467C255.591 132.343 253.813 118.777 249.608 110.908Z" fill="#00839E"/>
<path opacity="0.4" d="M249.608 110.908C245.409 103.039 243.689 102.489 242.942 99.9592C242.942 99.9592 243.62 98.0485 245.334 96.1146C244.819 95.9698 243.73 95.7556 243.046 95.6224C243.122 95.2808 243.203 94.9392 243.284 94.6092C242.716 94.4528 241.541 94.615 240.933 94.7134L240.904 93.9375C240.904 93.9375 238.772 93.5091 237.921 93.7465C238.008 94.1054 238.095 94.476 238.182 94.8581C237.435 95.0029 236.236 95.2403 235.674 95.3966C237.307 97.2378 237.898 99.2065 238.025 99.6928C235.761 103.578 226.964 128.585 241.274 130.467C255.591 132.343 253.813 118.777 249.608 110.908Z" fill="white"/>
<path d="M237.487 98.946C237.383 99.137 237.388 99.8608 237.377 100.15C237.359 100.44 238.13 100.631 238.998 100.712C239.867 100.793 243.446 100.938 243.33 100.538C243.22 100.139 243.504 99.5887 243.521 99.2528C243.539 98.917 242.091 98.8996 240.886 98.946C239.687 98.9981 237.73 98.5117 237.487 98.946Z" fill="#00839E"/>
<path d="M229.159 127.908H229.871C230.01 127.908 230.12 127.832 230.108 127.745L229.773 124.7C229.761 124.613 229.639 124.538 229.495 124.538H228.782C228.643 124.538 228.533 124.613 228.545 124.7L228.881 127.745C228.898 127.838 229.02 127.908 229.159 127.908Z" fill="#00839E"/>
</g>
<defs>
<clipPath id="clip0_1_9056">
<rect width="385.213" height="287" fill="white"/>
</clipPath>
</defs>
</svg>
