<svg width="22" height="20" viewBox="0 0 22 20" fill="none" xmlns="http://www.w3.org/2000/svg">
<path d="M4.95868 9H12.8926V11H4.95868V14L0 10L4.95868 6V9ZM3.96694 16H6.65256C7.7977 17.0183 9.20994 17.6819 10.7198 17.9109C12.2297 18.14 13.773 17.9249 15.1646 17.2915C16.5563 16.6581 17.7371 15.6332 18.5654 14.3398C19.3936 13.0465 19.8342 11.5396 19.8342 10C19.8342 8.46042 19.3936 6.95354 18.5654 5.66019C17.7371 4.36683 16.5563 3.34194 15.1646 2.7085C13.773 2.07506 12.2297 1.85998 10.7198 2.08906C9.20994 2.31815 7.7977 2.98167 6.65256 4H3.96694C4.88991 2.75718 6.0876 1.74851 7.46486 1.05414C8.84212 0.359775 10.361 -0.00116364 11.9008 2.81828e-06C17.3782 2.81828e-06 21.8182 4.477 21.8182 10C21.8182 15.523 17.3782 20 11.9008 20C10.361 20.0012 8.84212 19.6402 7.46486 18.9459C6.0876 18.2515 4.88991 17.2428 3.96694 16Z" fill="white"/>
</svg>
