<svg width="13" height="28" viewBox="0 0 13 28" fill="none" xmlns="http://www.w3.org/2000/svg">
<g clip-path="url(#clip0_1_11082)">
<path d="M6.06667 21.0062V24.5H3.49613C2.50727 24.5 1.7628 25.2517 1.7628 26.25V27.5625C1.7628 27.6786 1.80845 27.7899 1.88972 27.8719C1.97099 27.954 2.08121 28 2.19613 28H10.8628C10.9777 28 11.0879 27.954 11.1692 27.8719C11.2505 27.7899 11.2961 27.6786 11.2961 27.5625V26.3157C11.2961 25.2972 10.5343 24.5 9.5628 24.5H6.93333V21.0062C8.59521 20.8926 10.1523 20.1459 11.2895 18.9171C12.4268 17.6884 13.0592 16.0694 13.0589 14.3877V12.7365C13.0589 12.6752 13.0469 12.6144 13.0235 12.5578C13.0002 12.5011 12.9661 12.4496 12.9231 12.4063C12.8801 12.3629 12.829 12.3286 12.7728 12.3051C12.7167 12.2817 12.6565 12.2697 12.5957 12.2697C12.5349 12.2698 12.4748 12.2819 12.4186 12.3055C12.3625 12.329 12.3115 12.3635 12.2686 12.4069C12.2256 12.4503 12.1916 12.5019 12.1684 12.5586C12.1452 12.6153 12.1333 12.6761 12.1333 12.7374V14.3885C12.1333 17.5359 9.62 20.0953 6.52947 20.0953C3.43893 20.0953 0.9256 17.535 0.9256 14.3885V12.7374C0.9256 12.6135 0.876841 12.4946 0.790049 12.407C0.703257 12.3194 0.585542 12.2702 0.4628 12.2702C0.340058 12.2702 0.222343 12.3194 0.135551 12.407C0.0487591 12.4946 0 12.6135 0 12.7374L0 14.3885C0 17.8912 2.68233 20.7629 6.06667 21.0062ZM10.4295 26.3157V27.125H2.62947V26.25C2.62947 25.7347 2.98567 25.375 3.49613 25.375H9.5628C10.0568 25.375 10.4295 25.7793 10.4295 26.3157Z" fill="#A7979B"/>
<path d="M6.52956 -0.0297852C4.3629 -0.0297852 2.6001 1.77184 2.6001 3.98734V14.3885C2.6001 16.6031 4.3629 18.4056 6.52956 18.4056C8.69623 18.4056 10.459 16.6031 10.4001 14.3885V3.98734C10.4143 3.4651 10.3248 2.94527 10.1367 2.45857C9.94856 1.97187 9.66575 1.52818 9.30493 1.15369C8.94411 0.779211 8.51261 0.48154 8.03592 0.278269C7.55924 0.0749985 7.04703 -0.0297493 6.52956 -0.0297852ZM9.53343 14.3876C9.53343 16.0868 8.18576 17.4693 6.52956 17.4693C4.87336 17.4693 3.46676 16.0877 3.46676 14.3876V3.98734C3.46676 2.28809 4.87336 0.90559 6.52956 0.90559C8.18576 0.90559 9.53343 2.28721 9.53343 3.98734V14.3876Z" fill="#A7979B"/>
</g>
<defs>
<clipPath id="clip0_1_11082">
<rect width="13" height="28" fill="white"/>
</clipPath>
</defs>
</svg>
