<svg width="19" height="20" viewBox="0 0 19 20" fill="none" xmlns="http://www.w3.org/2000/svg">
<path d="M17.9343 16.3216C17.4661 15.1989 16.7866 14.1792 15.9336 13.3191C15.0833 12.4566 14.076 11.7689 12.9674 11.294C12.9574 11.2889 12.9475 11.2864 12.9376 11.2814C14.484 10.1508 15.4893 8.30904 15.4893 6.23116C15.4893 2.78894 12.734 0 9.33333 0C5.93265 0 3.17735 2.78894 3.17735 6.23116C3.17735 8.30904 4.18266 10.1508 5.7291 11.2839C5.71917 11.2889 5.70924 11.2915 5.69932 11.2965C4.58727 11.7714 3.5894 12.4523 2.73302 13.3216C1.88089 14.1823 1.20148 15.2019 0.732327 16.3241C0.271427 17.4227 0.0228539 18.6006 6.20712e-05 19.794C-0.000600455 19.8208 0.00404639 19.8475 0.0137289 19.8724C0.0234115 19.8974 0.0379337 19.9202 0.05644 19.9394C0.0749463 19.9586 0.0970621 19.9738 0.121484 19.9842C0.145907 19.9946 0.172141 20 0.198642 20H1.68799C1.79721 20 1.88409 19.9121 1.88657 19.804C1.93622 17.8643 2.70572 16.0477 4.06599 14.6709C5.47343 13.2462 7.34257 12.4623 9.33333 12.4623C11.3241 12.4623 13.1932 13.2462 14.6007 14.6709C15.9609 16.0477 16.7304 17.8643 16.7801 19.804C16.7826 19.9146 16.8695 20 16.9787 20H18.468C18.4945 20 18.5208 19.9946 18.5452 19.9842C18.5696 19.9738 18.5917 19.9586 18.6102 19.9394C18.6287 19.9202 18.6433 19.8974 18.6529 19.8724C18.6626 19.8475 18.6673 19.8208 18.6666 19.794C18.6418 18.593 18.396 17.4246 17.9343 16.3216ZM9.33333 10.5528C8.19398 10.5528 7.12165 10.103 6.31491 9.28643C5.50818 8.46985 5.06386 7.38442 5.06386 6.23116C5.06386 5.07789 5.50818 3.99246 6.31491 3.17588C7.12165 2.3593 8.19398 1.90955 9.33333 1.90955C10.4727 1.90955 11.545 2.3593 12.3518 3.17588C13.1585 3.99246 13.6028 5.07789 13.6028 6.23116C13.6028 7.38442 13.1585 8.46985 12.3518 9.28643C11.545 10.103 10.4727 10.5528 9.33333 10.5528Z" fill="white"/>
</svg>
