<svg width="22" height="22" viewBox="0 0 22 22" fill="none" xmlns="http://www.w3.org/2000/svg">
<path d="M21.2461 0.753747C21.128 0.636211 20.9788 0.554833 20.8161 0.519182C20.6533 0.483532 20.4838 0.495089 20.3274 0.552497L1.07738 7.5525C0.911363 7.61547 0.768434 7.72745 0.667573 7.87358C0.566713 8.01971 0.512695 8.19306 0.512695 8.37062C0.512695 8.54818 0.566713 8.72153 0.667573 8.86766C0.768434 9.01379 0.911363 9.12578 1.07738 9.18875L9.47738 12.5487L12.8374 20.9487C12.9005 21.1075 13.0087 21.2442 13.1487 21.3422C13.2886 21.4402 13.4541 21.495 13.6249 21.5C13.8017 21.4964 13.9733 21.4392 14.117 21.3362C14.2607 21.2331 14.3698 21.0888 14.4299 20.9225L21.4299 1.6725C21.4895 1.51769 21.5039 1.34912 21.4713 1.18645C21.4388 1.02379 21.3607 0.873718 21.2461 0.753747ZM13.6249 18.175L11.1836 12.05L15.3749 7.85875L14.1411 6.625L9.91488 10.8512L3.82488 8.375L19.1636 2.83625L13.6249 18.175Z" fill="white"/>
</svg>
